<mxfile host="app.diagrams.net" modified="2021-05-27T07:55:57.184Z" agent="5.0 (Windows NT 10.0; Win64; x64) AppleWebKit/537.36 (KHTML, like Gecko) Chrome/90.0.4430.212 Safari/537.36" etag="Eo01_tf3cMbtP5hvwsRG" version="14.7.0" type="github" pages="5">
  <diagram id="yt5JU67_8UWN-JsmqbRS" name="user">
    <mxGraphModel dx="1045" dy="604" grid="1" gridSize="10" guides="1" tooltips="1" connect="1" arrows="1" fold="1" page="1" pageScale="1" pageWidth="827" pageHeight="1169" math="0" shadow="0">
      <root>
        <mxCell id="0" />
        <mxCell id="1" parent="0" />
      </root>
    </mxGraphModel>
  </diagram>
  <diagram id="iCyQIotGxuH_81xqnklV" name="reviewer">
    <mxGraphModel dx="1045" dy="604" grid="1" gridSize="10" guides="1" tooltips="1" connect="1" arrows="1" fold="1" page="1" pageScale="1" pageWidth="827" pageHeight="1169" math="0" shadow="0">
      <root>
        <mxCell id="WgaoPQJk9dSTRBZjUE4S-0" />
        <mxCell id="WgaoPQJk9dSTRBZjUE4S-1" parent="WgaoPQJk9dSTRBZjUE4S-0" />
      </root>
    </mxGraphModel>
  </diagram>
  <diagram id="Je3vT-fydZ8JkIXlXKwk" name="Editor">
    <mxGraphModel dx="1045" dy="604" grid="1" gridSize="10" guides="1" tooltips="1" connect="1" arrows="1" fold="1" page="1" pageScale="1" pageWidth="827" pageHeight="1169" math="0" shadow="0">
      <root>
        <mxCell id="dMsXdLz-28r18CYDr1W1-0" />
        <mxCell id="dMsXdLz-28r18CYDr1W1-1" parent="dMsXdLz-28r18CYDr1W1-0" />
      </root>
    </mxGraphModel>
  </diagram>
  <diagram id="AK5EVmCLWq2x0Q0CtP0T" name="Admin">
    <mxGraphModel dx="1045" dy="604" grid="1" gridSize="10" guides="1" tooltips="1" connect="1" arrows="1" fold="1" page="1" pageScale="1" pageWidth="827" pageHeight="1169" math="0" shadow="0">
      <root>
        <mxCell id="M4F0eemscEi-Ojurj4gW-0" />
        <mxCell id="M4F0eemscEi-Ojurj4gW-1" parent="M4F0eemscEi-Ojurj4gW-0" />
        <mxCell id="s0g3P6EdcefiUdJ2ltGx-7" value="" style="rounded=0;whiteSpace=wrap;html=1;" vertex="1" parent="M4F0eemscEi-Ojurj4gW-1">
          <mxGeometry x="230" y="110" width="240" height="230" as="geometry" />
        </mxCell>
        <mxCell id="s0g3P6EdcefiUdJ2ltGx-0" value="Admin&lt;br&gt;[Logged In]" style="shape=umlActor;verticalLabelPosition=bottom;verticalAlign=top;html=1;outlineConnect=0;" vertex="1" parent="M4F0eemscEi-Ojurj4gW-1">
          <mxGeometry x="160" y="220" width="30" height="60" as="geometry" />
        </mxCell>
        <mxCell id="s0g3P6EdcefiUdJ2ltGx-1" value="Approve editor content" style="ellipse;whiteSpace=wrap;html=1;" vertex="1" parent="M4F0eemscEi-Ojurj4gW-1">
          <mxGeometry x="280" y="180" width="110" height="50" as="geometry" />
        </mxCell>
        <mxCell id="s0g3P6EdcefiUdJ2ltGx-2" value="Monitor site users" style="ellipse;whiteSpace=wrap;html=1;" vertex="1" parent="M4F0eemscEi-Ojurj4gW-1">
          <mxGeometry x="290" y="250" width="110" height="50" as="geometry" />
        </mxCell>
        <mxCell id="s0g3P6EdcefiUdJ2ltGx-3" value="" style="endArrow=none;html=1;exitX=1;exitY=0.3333333333333333;exitDx=0;exitDy=0;exitPerimeter=0;entryX=0;entryY=1;entryDx=0;entryDy=0;" edge="1" parent="M4F0eemscEi-Ojurj4gW-1" source="s0g3P6EdcefiUdJ2ltGx-0" target="s0g3P6EdcefiUdJ2ltGx-1">
          <mxGeometry width="50" height="50" relative="1" as="geometry">
            <mxPoint x="390" y="340" as="sourcePoint" />
            <mxPoint x="440" y="290" as="targetPoint" />
          </mxGeometry>
        </mxCell>
        <mxCell id="s0g3P6EdcefiUdJ2ltGx-4" value="" style="endArrow=none;html=1;exitX=1;exitY=0.3333333333333333;exitDx=0;exitDy=0;exitPerimeter=0;entryX=0;entryY=0.5;entryDx=0;entryDy=0;" edge="1" parent="M4F0eemscEi-Ojurj4gW-1" source="s0g3P6EdcefiUdJ2ltGx-0" target="s0g3P6EdcefiUdJ2ltGx-2">
          <mxGeometry width="50" height="50" relative="1" as="geometry">
            <mxPoint x="220" y="290" as="sourcePoint" />
            <mxPoint x="306.1091270347399" y="232.67766952966372" as="targetPoint" />
          </mxGeometry>
        </mxCell>
        <mxCell id="s0g3P6EdcefiUdJ2ltGx-8" value="Conference paper management tool" style="text;html=1;align=center;verticalAlign=middle;resizable=0;points=[];autosize=1;strokeColor=none;" vertex="1" parent="M4F0eemscEi-Ojurj4gW-1">
          <mxGeometry x="245" y="110" width="210" height="20" as="geometry" />
        </mxCell>
      </root>
    </mxGraphModel>
  </diagram>
  <diagram id="4hbYMAjN85cjlJoqyKph" name="System">
    <mxGraphModel dx="1045" dy="604" grid="1" gridSize="10" guides="1" tooltips="1" connect="1" arrows="1" fold="1" page="1" pageScale="1" pageWidth="827" pageHeight="1169" math="0" shadow="0">
      <root>
        <mxCell id="KIuMmyHPbqLdzDRLg5IM-0" />
        <mxCell id="KIuMmyHPbqLdzDRLg5IM-1" parent="KIuMmyHPbqLdzDRLg5IM-0" />
      </root>
    </mxGraphModel>
  </diagram>
</mxfile>
